# xmcd
#
# Track frame offsets:
#  150
#  15814
#  37001
#  63092
#  81018
#  99099
#  112556
#  147640
#  172613
#  188866
#  211748
#  234205
#
# Disc length: 3381 seconds
#
# Revision: 0
# Processed by: cddbd v1.5.2PL0 Copyright (c) Steve Scherf et al.
# Submitted via: Collectorz.com_Music_Collector 6.9
#
DISCID=7d0d330c
DTITLE=Root Doctor - Been A Long Time Coming
DYEAR=2005
DGENRE=Blues
TTITLE0=Me And My Wife
TTITLE1=Michigan Roads
TTITLE2=Last Two Dollars
TTITLE3=Love Bones
TTITLE4=The Turning Point
TTITLE5=Mississippi Blues
TTITLE6=Resepect Yourself
TTITLE7=Too Late To Try To Do Right
TTITLE8=Been A Long Time Coming
TTITLE9=Rainy Night In Georgia
TTITLE10=My Foolish Pride
TTITLE11=Hold On
EXTD=
EXTT0=
EXTT1=
EXTT2=
EXTT3=
EXTT4=
EXTT5=
EXTT6=
EXTT7=
EXTT8=
EXTT9=
EXTT10=
EXTT11=
PLAYORDER=
